<svg overflow="hidden" xmlns:xlink="http://www.w3.org/1999/xlink" xmlns="http://www.w3.org/2000/svg" viewBox="0 635.49 3852.9300118623964 1154.934" style="max-height: 500px" width="3852.9300118623964" height="1154.934"><defs><clipPath id="clip0"><rect height="2763" width="4660" y="596" x="1504"/></clipPath></defs><g transform="translate(-1504 -596)" clip-path="url(#clip0)"><path transform="matrix(-0.608227 0.793763 0.793763 0.608227 1927.12 1180.29)" fill-rule="evenodd" fill="#1F4E79" d="M0 574.067C-1.46173e-13 257.018 236.398-7.30864e-14 528.01-1.46173e-13 819.621-2.92345e-13 1056.02 257.018 1056.02 574.067L792.015 574.067C792.015 402.824 673.816 264.004 528.01 264.004 382.203 264.004 264.004 402.824 264.004 574.067Z"/><path fill-rule="evenodd" fill="#F1A877" d="M2221.4 1517.32 2328.68 1491.45 2422.83 1549.01 2448.69 1656.29 2387.17 1756.92 2279.89 1782.79 2185.74 1725.22 2159.87 1617.94Z"/><path transform="matrix(0.608227 -0.793763 -0.793763 -0.608227 2437.32 2434.43)" fill-rule="evenodd" fill="#1F4E79" d="M0 574.067C-1.46173e-13 257.018 236.398-7.30864e-14 528.01-1.46173e-13 819.621-2.92345e-13 1056.02 257.018 1056.02 574.067L792.015 574.067C792.015 402.824 673.816 264.004 528.01 264.004 382.203 264.004 264.004 402.824 264.004 574.067Z"/><path fill-rule="evenodd" fill="#F1A877" d="M2187.95 1907.72 2202.43 2017.11 2135.31 2104.71 2025.91 2119.18 1932.29 2047.45 1917.81 1938.05 1984.93 1850.45 2094.33 1835.98Z"/><text transform="matrix(1 0 0 1 3029.4 2074)" font-size="1315" font-weight="400" font-family="Adobe Arabic,Adobe Arabic_MSFontService,sans-serif" fill="#728682">KodA</text></g></svg>