<svg xmlns="http://www.w3.org/2000/svg" xmlns:xlink="http://www.w3.org/1999/xlink" width="500" zoomAndPan="magnify" viewBox="0 0 375 124.499996" height="166" preserveAspectRatio="xMidYMid meet" version="1.2"><defs><clipPath id="64aa9f24c6"><path d="M 71 41 L 121 41 L 121 91 L 71 91 Z M 71 41 "/></clipPath><clipPath id="3489cad616"><path d="M 62.292969 59.628906 L 106.40625 30.1875 L 129.214844 64.359375 L 85.101562 93.800781 Z M 62.292969 59.628906 "/></clipPath><clipPath id="d874550a65"><path d="M 62.292969 59.628906 L 106.40625 30.1875 L 129.214844 64.359375 L 85.101562 93.800781 Z M 62.292969 59.628906 "/></clipPath><clipPath id="431817404d"><path d="M 78 57 L 106 57 L 106 87 L 78 87 Z M 78 57 "/></clipPath><clipPath id="272432b84d"><path d="M 62.292969 59.628906 L 106.40625 30.1875 L 129.214844 64.359375 L 85.101562 93.800781 Z M 62.292969 59.628906 "/></clipPath><clipPath id="4afb994bda"><path d="M 62.292969 59.628906 L 106.40625 30.1875 L 129.214844 64.359375 L 85.101562 93.800781 Z M 62.292969 59.628906 "/></clipPath><clipPath id="a16c7bb9ec"><path d="M 101 44 L 117 44 L 117 59 L 101 59 Z M 101 44 "/></clipPath><clipPath id="c132b11672"><path d="M 62.292969 59.628906 L 106.40625 30.1875 L 129.214844 64.359375 L 85.101562 93.800781 Z M 62.292969 59.628906 "/></clipPath><clipPath id="83c09baa3f"><path d="M 62.292969 59.628906 L 106.40625 30.1875 L 129.214844 64.359375 L 85.101562 93.800781 Z M 62.292969 59.628906 "/></clipPath><clipPath id="c6c92e67e7"><path d="M 102 56 L 111 56 L 111 65 L 102 65 Z M 102 56 "/></clipPath><clipPath id="963a6a7dea"><path d="M 62.292969 59.628906 L 106.40625 30.1875 L 129.214844 64.359375 L 85.101562 93.800781 Z M 62.292969 59.628906 "/></clipPath><clipPath id="5a13934c69"><path d="M 62.292969 59.628906 L 106.40625 30.1875 L 129.214844 64.359375 L 85.101562 93.800781 Z M 62.292969 59.628906 "/></clipPath><clipPath id="40c403f1fd"><path d="M 96 51 L 105 51 L 105 60 L 96 60 Z M 96 51 "/></clipPath><clipPath id="4c94eba58f"><path d="M 62.292969 59.628906 L 106.40625 30.1875 L 129.214844 64.359375 L 85.101562 93.800781 Z M 62.292969 59.628906 "/></clipPath><clipPath id="96bb61adb5"><path d="M 62.292969 59.628906 L 106.40625 30.1875 L 129.214844 64.359375 L 85.101562 93.800781 Z M 62.292969 59.628906 "/></clipPath><clipPath id="871cd70e79"><path d="M 100 47 L 103 47 L 103 50 L 100 50 Z M 100 47 "/></clipPath><clipPath id="694909cefa"><path d="M 62.292969 59.628906 L 106.40625 30.1875 L 129.214844 64.359375 L 85.101562 93.800781 Z M 62.292969 59.628906 "/></clipPath><clipPath id="406929d1cc"><path d="M 62.292969 59.628906 L 106.40625 30.1875 L 129.214844 64.359375 L 85.101562 93.800781 Z M 62.292969 59.628906 "/></clipPath><clipPath id="5803a0c299"><path d="M 103 44 L 106 44 L 106 47 L 103 47 Z M 103 44 "/></clipPath><clipPath id="b475fd234e"><path d="M 62.292969 59.628906 L 106.40625 30.1875 L 129.214844 64.359375 L 85.101562 93.800781 Z M 62.292969 59.628906 "/></clipPath><clipPath id="f17f38466e"><path d="M 62.292969 59.628906 L 106.40625 30.1875 L 129.214844 64.359375 L 85.101562 93.800781 Z M 62.292969 59.628906 "/></clipPath><clipPath id="6b1dbff56f"><path d="M 92 53 L 119 53 L 119 87 L 92 87 Z M 92 53 "/></clipPath><clipPath id="293283c79d"><path d="M 62.292969 59.628906 L 106.40625 30.1875 L 129.214844 64.359375 L 85.101562 93.800781 Z M 62.292969 59.628906 "/></clipPath><clipPath id="6771e77ee3"><path d="M 62.292969 59.628906 L 106.40625 30.1875 L 129.214844 64.359375 L 85.101562 93.800781 Z M 62.292969 59.628906 "/></clipPath><clipPath id="faae04fdc7"><path d="M 76 53 L 95 53 L 95 78 L 76 78 Z M 76 53 "/></clipPath><clipPath id="f6c540d729"><path d="M 62.292969 59.628906 L 106.40625 30.1875 L 129.214844 64.359375 L 85.101562 93.800781 Z M 62.292969 59.628906 "/></clipPath><clipPath id="5deb51044c"><path d="M 62.292969 59.628906 L 106.40625 30.1875 L 129.214844 64.359375 L 85.101562 93.800781 Z M 62.292969 59.628906 "/></clipPath><clipPath id="18ea062e3e"><path d="M 85 55 L 95 55 L 95 67 L 85 67 Z M 85 55 "/></clipPath><clipPath id="647f4b984e"><path d="M 62.292969 59.628906 L 106.40625 30.1875 L 129.214844 64.359375 L 85.101562 93.800781 Z M 62.292969 59.628906 "/></clipPath><clipPath id="9a75711263"><path d="M 62.292969 59.628906 L 106.40625 30.1875 L 129.214844 64.359375 L 85.101562 93.800781 Z M 62.292969 59.628906 "/></clipPath></defs><g id="004fff7854"><g style="fill:#5592d1;fill-opacity:0.4;"><g transform="translate(14.197539, 82.18075)"><path style="stroke:none" d="M 23.59375 -36.234375 C 26.101562 -36.234375 28.421875 -35.75 30.546875 -34.78125 C 32.679688 -33.8125 34.519531 -32.484375 36.0625 -30.796875 C 37.601562 -29.117188 38.8125 -27.15625 39.6875 -24.90625 C 40.5625 -22.65625 41 -20.25 41 -17.6875 C 41 -15.132812 40.5625 -12.734375 39.6875 -10.484375 C 38.8125 -8.234375 37.601562 -6.265625 36.0625 -4.578125 C 34.519531 -2.898438 32.679688 -1.570312 30.546875 -0.59375 C 28.421875 0.375 26.101562 0.859375 23.59375 0.859375 C 21.550781 0.859375 19.554688 0.492188 17.609375 -0.234375 C 15.671875 -0.972656 14.160156 -1.914062 13.078125 -3.0625 L 13.078125 14.078125 L 3.265625 14.078125 L 3.265625 -35.25 L 11.65625 -35.25 L 13.078125 -32.828125 C 14.453125 -34.054688 15.988281 -34.929688 17.6875 -35.453125 C 19.394531 -35.972656 21.363281 -36.234375 23.59375 -36.234375 Z M 22.3125 -7.890625 C 23.59375 -7.890625 24.789062 -8.148438 25.90625 -8.671875 C 27.019531 -9.191406 27.988281 -9.890625 28.8125 -10.765625 C 29.644531 -11.640625 30.304688 -12.671875 30.796875 -13.859375 C 31.296875 -15.046875 31.546875 -16.320312 31.546875 -17.6875 C 31.546875 -19.019531 31.296875 -20.289062 30.796875 -21.5 C 30.304688 -22.707031 29.644531 -23.75 28.8125 -24.625 C 27.988281 -25.5 27.019531 -26.195312 25.90625 -26.71875 C 24.789062 -27.238281 23.59375 -27.5 22.3125 -27.5 C 21.03125 -27.5 19.832031 -27.320312 18.71875 -26.96875 C 17.613281 -26.613281 16.644531 -26.046875 15.8125 -25.265625 C 14.976562 -24.484375 14.320312 -23.460938 13.84375 -22.203125 C 13.375 -20.953125 13.140625 -19.445312 13.140625 -17.6875 C 13.140625 -16.03125 13.375 -14.597656 13.84375 -13.390625 C 14.320312 -12.179688 14.976562 -11.160156 15.8125 -10.328125 C 16.644531 -9.503906 17.613281 -8.890625 18.71875 -8.484375 C 19.832031 -8.085938 21.03125 -7.890625 22.3125 -7.890625 Z M 22.3125 -7.890625 "/></g></g><g style="fill:#5592d1;fill-opacity:0.4;"><g transform="translate(56.193022, 82.18075)"><path style="stroke:none" d="M 12.859375 -30.34375 C 13.335938 -31.101562 13.882812 -31.828125 14.5 -32.515625 C 15.113281 -33.203125 15.847656 -33.816406 16.703125 -34.359375 C 17.554688 -34.898438 18.523438 -35.335938 19.609375 -35.671875 C 20.703125 -36.003906 21.9375 -36.171875 23.3125 -36.171875 C 24.914062 -36.171875 26.785156 -35.882812 28.921875 -35.3125 L 28 -26.578125 C 27.476562 -26.671875 26.957031 -26.789062 26.4375 -26.9375 C 26.007812 -27.03125 25.535156 -27.109375 25.015625 -27.171875 C 24.492188 -27.242188 24.019531 -27.28125 23.59375 -27.28125 C 22.070312 -27.28125 20.660156 -27.066406 19.359375 -26.640625 C 18.054688 -26.222656 16.929688 -25.632812 15.984375 -24.875 C 15.035156 -24.113281 14.273438 -23.195312 13.703125 -22.125 C 13.140625 -21.0625 12.859375 -19.914062 12.859375 -18.6875 L 12.859375 0 L 3.0625 0 L 3.0625 -35.25 L 11.9375 -35.25 Z M 12.859375 -30.34375 "/></g></g><g style="fill:#5592d1;fill-opacity:1;"><g transform="translate(9.235458, 77.21867)"><path style="stroke:none" d="M 23.59375 -36.234375 C 26.101562 -36.234375 28.421875 -35.75 30.546875 -34.78125 C 32.679688 -33.8125 34.519531 -32.484375 36.0625 -30.796875 C 37.601562 -29.117188 38.8125 -27.15625 39.6875 -24.90625 C 40.5625 -22.65625 41 -20.25 41 -17.6875 C 41 -15.132812 40.5625 -12.734375 39.6875 -10.484375 C 38.8125 -8.234375 37.601562 -6.265625 36.0625 -4.578125 C 34.519531 -2.898438 32.679688 -1.570312 30.546875 -0.59375 C 28.421875 0.375 26.101562 0.859375 23.59375 0.859375 C 21.550781 0.859375 19.554688 0.492188 17.609375 -0.234375 C 15.671875 -0.972656 14.160156 -1.914062 13.078125 -3.0625 L 13.078125 14.078125 L 3.265625 14.078125 L 3.265625 -35.25 L 11.65625 -35.25 L 13.078125 -32.828125 C 14.453125 -34.054688 15.988281 -34.929688 17.6875 -35.453125 C 19.394531 -35.972656 21.363281 -36.234375 23.59375 -36.234375 Z M 22.3125 -7.890625 C 23.59375 -7.890625 24.789062 -8.148438 25.90625 -8.671875 C 27.019531 -9.191406 27.988281 -9.890625 28.8125 -10.765625 C 29.644531 -11.640625 30.304688 -12.671875 30.796875 -13.859375 C 31.296875 -15.046875 31.546875 -16.320312 31.546875 -17.6875 C 31.546875 -19.019531 31.296875 -20.289062 30.796875 -21.5 C 30.304688 -22.707031 29.644531 -23.75 28.8125 -24.625 C 27.988281 -25.5 27.019531 -26.195312 25.90625 -26.71875 C 24.789062 -27.238281 23.59375 -27.5 22.3125 -27.5 C 21.03125 -27.5 19.832031 -27.320312 18.71875 -26.96875 C 17.613281 -26.613281 16.644531 -26.046875 15.8125 -25.265625 C 14.976562 -24.484375 14.320312 -23.460938 13.84375 -22.203125 C 13.375 -20.953125 13.140625 -19.445312 13.140625 -17.6875 C 13.140625 -16.03125 13.375 -14.597656 13.84375 -13.390625 C 14.320312 -12.179688 14.976562 -11.160156 15.8125 -10.328125 C 16.644531 -9.503906 17.613281 -8.890625 18.71875 -8.484375 C 19.832031 -8.085938 21.03125 -7.890625 22.3125 -7.890625 Z M 22.3125 -7.890625 "/></g></g><g style="fill:#5592d1;fill-opacity:1;"><g transform="translate(51.230942, 77.21867)"><path style="stroke:none" d="M 12.859375 -30.34375 C 13.335938 -31.101562 13.882812 -31.828125 14.5 -32.515625 C 15.113281 -33.203125 15.847656 -33.816406 16.703125 -34.359375 C 17.554688 -34.898438 18.523438 -35.335938 19.609375 -35.671875 C 20.703125 -36.003906 21.9375 -36.171875 23.3125 -36.171875 C 24.914062 -36.171875 26.785156 -35.882812 28.921875 -35.3125 L 28 -26.578125 C 27.476562 -26.671875 26.957031 -26.789062 26.4375 -26.9375 C 26.007812 -27.03125 25.535156 -27.109375 25.015625 -27.171875 C 24.492188 -27.242188 24.019531 -27.28125 23.59375 -27.28125 C 22.070312 -27.28125 20.660156 -27.066406 19.359375 -26.640625 C 18.054688 -26.222656 16.929688 -25.632812 15.984375 -24.875 C 15.035156 -24.113281 14.273438 -23.195312 13.703125 -22.125 C 13.140625 -21.0625 12.859375 -19.914062 12.859375 -18.6875 L 12.859375 0 L 3.0625 0 L 3.0625 -35.25 L 11.9375 -35.25 Z M 12.859375 -30.34375 "/></g></g><g style="fill:#5592d1;fill-opacity:0.4;"><g transform="translate(85.477675, 82.18075)"><path style="stroke:none" d=""/></g></g><g style="fill:#5592d1;fill-opacity:0.4;"><g transform="translate(105.018717, 82.18075)"><path style="stroke:none" d=""/></g></g><g style="fill:#5592d1;fill-opacity:1;"><g transform="translate(80.515594, 77.21867)"><path style="stroke:none" d=""/></g></g><g style="fill:#5592d1;fill-opacity:1;"><g transform="translate(100.056637, 77.21867)"><path style="stroke:none" d=""/></g></g><g style="fill:#5592d1;fill-opacity:0.4;"><g transform="translate(124.566781, 82.18075)"><path style="stroke:none" d="M 42.421875 -35.25 C 43.703125 -35.25 45.078125 -35.035156 46.546875 -34.609375 C 48.015625 -34.179688 49.375 -33.421875 50.625 -32.328125 C 51.882812 -31.242188 52.914062 -29.753906 53.71875 -27.859375 C 54.53125 -25.960938 54.9375 -23.546875 54.9375 -20.609375 L 54.9375 0 L 45.125 0 L 45.125 -18.828125 C 45.125 -20.253906 44.96875 -21.460938 44.65625 -22.453125 C 44.351562 -23.453125 43.941406 -24.257812 43.421875 -24.875 C 42.898438 -25.488281 42.296875 -25.925781 41.609375 -26.1875 C 40.921875 -26.445312 40.222656 -26.578125 39.515625 -26.578125 C 38.847656 -26.578125 38.179688 -26.457031 37.515625 -26.21875 C 36.859375 -25.976562 36.269531 -25.570312 35.75 -25 C 35.226562 -24.4375 34.8125 -23.65625 34.5 -22.65625 C 34.1875 -21.664062 34.03125 -20.414062 34.03125 -18.90625 L 34.03125 0 L 24.234375 0 L 24.234375 -18.828125 C 24.234375 -21.722656 23.734375 -23.738281 22.734375 -24.875 C 21.742188 -26.007812 20.300781 -26.578125 18.40625 -26.578125 C 17.03125 -26.578125 15.796875 -25.9375 14.703125 -24.65625 C 13.617188 -23.375 13.078125 -21.382812 13.078125 -18.6875 L 13.078125 0 L 3.265625 0 L 3.265625 -35.25 L 11.65625 -35.25 L 13.078125 -31.984375 C 14.160156 -33.023438 15.425781 -33.828125 16.875 -34.390625 C 18.320312 -34.960938 19.875 -35.25 21.53125 -35.25 C 22.382812 -35.25 23.285156 -35.164062 24.234375 -35 C 25.179688 -34.832031 26.101562 -34.535156 27 -34.109375 C 27.90625 -33.679688 28.769531 -33.125 29.59375 -32.4375 C 30.425781 -31.75 31.175781 -30.882812 31.84375 -29.84375 C 32.40625 -30.75 33.085938 -31.539062 33.890625 -32.21875 C 34.703125 -32.90625 35.582031 -33.472656 36.53125 -33.921875 C 37.476562 -34.378906 38.457031 -34.710938 39.46875 -34.921875 C 40.488281 -35.140625 41.472656 -35.25 42.421875 -35.25 Z M 42.421875 -35.25 "/></g></g><g style="fill:#5592d1;fill-opacity:0.4;"><g transform="translate(182.550384, 82.18075)"><path style="stroke:none" d="M 23.59375 -36.234375 C 26.101562 -36.234375 28.421875 -35.75 30.546875 -34.78125 C 32.679688 -33.8125 34.519531 -32.484375 36.0625 -30.796875 C 37.601562 -29.117188 38.8125 -27.15625 39.6875 -24.90625 C 40.5625 -22.65625 41 -20.25 41 -17.6875 C 41 -15.132812 40.5625 -12.734375 39.6875 -10.484375 C 38.8125 -8.234375 37.601562 -6.265625 36.0625 -4.578125 C 34.519531 -2.898438 32.679688 -1.570312 30.546875 -0.59375 C 28.421875 0.375 26.101562 0.859375 23.59375 0.859375 C 21.550781 0.859375 19.554688 0.492188 17.609375 -0.234375 C 15.671875 -0.972656 14.160156 -1.914062 13.078125 -3.0625 L 13.078125 14.078125 L 3.265625 14.078125 L 3.265625 -35.25 L 11.65625 -35.25 L 13.078125 -32.828125 C 14.453125 -34.054688 15.988281 -34.929688 17.6875 -35.453125 C 19.394531 -35.972656 21.363281 -36.234375 23.59375 -36.234375 Z M 22.3125 -7.890625 C 23.59375 -7.890625 24.789062 -8.148438 25.90625 -8.671875 C 27.019531 -9.191406 27.988281 -9.890625 28.8125 -10.765625 C 29.644531 -11.640625 30.304688 -12.671875 30.796875 -13.859375 C 31.296875 -15.046875 31.546875 -16.320312 31.546875 -17.6875 C 31.546875 -19.019531 31.296875 -20.289062 30.796875 -21.5 C 30.304688 -22.707031 29.644531 -23.75 28.8125 -24.625 C 27.988281 -25.5 27.019531 -26.195312 25.90625 -26.71875 C 24.789062 -27.238281 23.59375 -27.5 22.3125 -27.5 C 21.03125 -27.5 19.832031 -27.320312 18.71875 -26.96875 C 17.613281 -26.613281 16.644531 -26.046875 15.8125 -25.265625 C 14.976562 -24.484375 14.320312 -23.460938 13.84375 -22.203125 C 13.375 -20.953125 13.140625 -19.445312 13.140625 -17.6875 C 13.140625 -16.03125 13.375 -14.597656 13.84375 -13.390625 C 14.320312 -12.179688 14.976562 -11.160156 15.8125 -10.328125 C 16.644531 -9.503906 17.613281 -8.890625 18.71875 -8.484375 C 19.832031 -8.085938 21.03125 -7.890625 22.3125 -7.890625 Z M 22.3125 -7.890625 "/></g></g><g style="fill:#5592d1;fill-opacity:0.4;"><g transform="translate(224.545867, 82.18075)"><path style="stroke:none" d="M 16.203125 -12.65625 C 16.203125 -10.988281 16.710938 -9.707031 17.734375 -8.8125 C 18.753906 -7.914062 20.09375 -7.46875 21.75 -7.46875 C 23.070312 -7.46875 24.394531 -7.726562 25.71875 -8.25 L 25.71875 0 C 24.539062 0.375 23.285156 0.691406 21.953125 0.953125 C 20.628906 1.210938 19.304688 1.34375 17.984375 1.34375 C 16.460938 1.34375 15.015625 1.15625 13.640625 0.78125 C 12.265625 0.40625 11.03125 -0.242188 9.9375 -1.171875 C 8.851562 -2.097656 7.988281 -3.328125 7.34375 -4.859375 C 6.707031 -6.398438 6.390625 -8.3125 6.390625 -10.59375 L 6.390625 -26.5 L 1.34375 -26.5 L 1.34375 -33.109375 L 6.390625 -35.25 L 6.390625 -43.140625 L 16.203125 -43.140625 L 16.203125 -35.25 L 25.71875 -35.25 L 25.71875 -26.5 L 16.203125 -26.5 Z M 16.203125 -12.65625 "/></g></g><g style="fill:#5592d1;fill-opacity:0.4;"><g transform="translate(251.761212, 82.18075)"><path style="stroke:none" d="M 25.578125 -18.46875 C 28.179688 -16.625 29.484375 -14 29.484375 -10.59375 C 29.484375 -9.03125 29.113281 -7.5625 28.375 -6.1875 C 27.644531 -4.8125 26.640625 -3.601562 25.359375 -2.5625 C 24.085938 -1.519531 22.597656 -0.703125 20.890625 -0.109375 C 19.179688 0.484375 17.359375 0.78125 15.421875 0.78125 C 13.953125 0.78125 12.519531 0.585938 11.125 0.203125 C 9.726562 -0.171875 8.4375 -0.6875 7.25 -1.34375 C 6.0625 -2.007812 5.03125 -2.800781 4.15625 -3.71875 C 3.28125 -4.644531 2.628906 -5.679688 2.203125 -6.828125 C 3.296875 -7.347656 4.503906 -7.925781 5.828125 -8.5625 C 7.148438 -9.195312 8.3125 -9.773438 9.3125 -10.296875 C 9.738281 -9.585938 10.398438 -8.9375 11.296875 -8.34375 C 12.203125 -7.757812 13.4375 -7.46875 15 -7.46875 C 16.601562 -7.46875 17.785156 -7.84375 18.546875 -8.59375 C 19.304688 -9.351562 19.6875 -10.066406 19.6875 -10.734375 C 19.6875 -11.203125 19.425781 -11.640625 18.90625 -12.046875 C 18.382812 -12.453125 17.789062 -12.769531 17.125 -13 C 16.175781 -13.382812 15.394531 -13.585938 14.78125 -13.609375 C 14.164062 -13.628906 13.457031 -13.757812 12.65625 -14 C 10.09375 -14.613281 8.132812 -15.429688 6.78125 -16.453125 C 5.4375 -17.472656 4.453125 -18.503906 3.828125 -19.546875 C 3.210938 -20.585938 2.867188 -21.582031 2.796875 -22.53125 C 2.734375 -23.476562 2.703125 -24.234375 2.703125 -24.796875 C 2.703125 -26.316406 3.03125 -27.765625 3.6875 -29.140625 C 4.351562 -30.515625 5.265625 -31.707031 6.421875 -32.71875 C 7.585938 -33.738281 8.941406 -34.554688 10.484375 -35.171875 C 12.023438 -35.785156 13.671875 -36.09375 15.421875 -36.09375 C 16.890625 -36.09375 18.285156 -35.878906 19.609375 -35.453125 C 20.941406 -35.035156 22.148438 -34.445312 23.234375 -33.6875 C 24.328125 -32.925781 25.265625 -32.023438 26.046875 -30.984375 C 26.828125 -29.941406 27.40625 -28.78125 27.78125 -27.5 L 20.1875 -24.9375 C 19.894531 -25.789062 19.3125 -26.476562 18.4375 -27 C 17.5625 -27.519531 16.628906 -27.78125 15.640625 -27.78125 C 14.640625 -27.78125 13.832031 -27.445312 13.21875 -26.78125 C 12.601562 -26.125 12.296875 -25.460938 12.296875 -24.796875 C 12.296875 -23.992188 12.59375 -23.367188 13.1875 -22.921875 C 13.78125 -22.472656 14.429688 -22.148438 15.140625 -21.953125 C 15.660156 -21.859375 16.164062 -21.773438 16.65625 -21.703125 C 17.15625 -21.640625 17.644531 -21.554688 18.125 -21.453125 C 19.78125 -21.078125 21.210938 -20.648438 22.421875 -20.171875 C 23.628906 -19.703125 24.679688 -19.132812 25.578125 -18.46875 Z M 25.578125 -18.46875 "/></g></g><g style="fill:#5592d1;fill-opacity:0.4;"><g transform="translate(283.240051, 82.18075)"><path style="stroke:none" d="M 13.859375 0 L 4.046875 0 L 4.046875 -35.25 L 13.859375 -35.25 Z M 8.953125 -40.078125 C 7.441406 -40.078125 6.160156 -40.597656 5.109375 -41.640625 C 4.066406 -42.679688 3.546875 -43.960938 3.546875 -45.484375 C 3.546875 -46.992188 4.066406 -48.28125 5.109375 -49.34375 C 6.160156 -50.414062 7.441406 -50.953125 8.953125 -50.953125 C 10.472656 -50.953125 11.753906 -50.414062 12.796875 -49.34375 C 13.835938 -48.28125 14.359375 -46.992188 14.359375 -45.484375 C 14.359375 -43.960938 13.835938 -42.679688 12.796875 -41.640625 C 11.753906 -40.597656 10.472656 -40.078125 8.953125 -40.078125 Z M 8.953125 -40.078125 "/></g></g><g style="fill:#5592d1;fill-opacity:0.4;"><g transform="translate(301.217815, 82.18075)"><path style="stroke:none" d="M 16.203125 -12.65625 C 16.203125 -10.988281 16.710938 -9.707031 17.734375 -8.8125 C 18.753906 -7.914062 20.09375 -7.46875 21.75 -7.46875 C 23.070312 -7.46875 24.394531 -7.726562 25.71875 -8.25 L 25.71875 0 C 24.539062 0.375 23.285156 0.691406 21.953125 0.953125 C 20.628906 1.210938 19.304688 1.34375 17.984375 1.34375 C 16.460938 1.34375 15.015625 1.15625 13.640625 0.78125 C 12.265625 0.40625 11.03125 -0.242188 9.9375 -1.171875 C 8.851562 -2.097656 7.988281 -3.328125 7.34375 -4.859375 C 6.707031 -6.398438 6.390625 -8.3125 6.390625 -10.59375 L 6.390625 -26.5 L 1.34375 -26.5 L 1.34375 -33.109375 L 6.390625 -35.25 L 6.390625 -43.140625 L 16.203125 -43.140625 L 16.203125 -35.25 L 25.71875 -35.25 L 25.71875 -26.5 L 16.203125 -26.5 Z M 16.203125 -12.65625 "/></g></g><g style="fill:#5592d1;fill-opacity:0.4;"><g transform="translate(328.43316, 82.18075)"><path style="stroke:none" d="M 20.609375 -36.234375 C 23.265625 -36.234375 25.679688 -35.703125 27.859375 -34.640625 C 30.035156 -33.578125 31.90625 -32.179688 33.46875 -30.453125 C 35.03125 -28.722656 36.238281 -26.734375 37.09375 -24.484375 C 37.945312 -22.234375 38.375 -19.921875 38.375 -17.546875 C 38.375 -16.128906 38.1875 -14.613281 37.8125 -13 L 12.65625 -13 C 13.601562 -11.394531 14.953125 -10.035156 16.703125 -8.921875 C 18.453125 -7.804688 20.347656 -7.25 22.390625 -7.25 C 24.421875 -7.25 26.207031 -7.414062 27.75 -7.75 C 29.289062 -8.082031 30.75 -8.507812 32.125 -9.03125 L 35.390625 -2.984375 C 33.640625 -1.753906 31.640625 -0.804688 29.390625 -0.140625 C 27.140625 0.523438 24.734375 0.859375 22.171875 0.859375 C 19.378906 0.859375 16.773438 0.375 14.359375 -0.59375 C 11.941406 -1.570312 9.832031 -2.890625 8.03125 -4.546875 C 6.226562 -6.203125 4.804688 -8.164062 3.765625 -10.4375 C 2.722656 -12.71875 2.203125 -15.132812 2.203125 -17.6875 C 2.203125 -20.195312 2.675781 -22.578125 3.625 -24.828125 C 4.570312 -27.085938 5.882812 -29.054688 7.5625 -30.734375 C 9.25 -32.410156 11.203125 -33.742188 13.421875 -34.734375 C 15.648438 -35.734375 18.046875 -36.234375 20.609375 -36.234375 Z M 28.640625 -20.609375 C 28.066406 -22.640625 27.046875 -24.296875 25.578125 -25.578125 C 24.109375 -26.859375 22.453125 -27.5 20.609375 -27.5 C 18.710938 -27.5 16.992188 -26.859375 15.453125 -25.578125 C 13.910156 -24.296875 12.859375 -22.640625 12.296875 -20.609375 Z M 28.640625 -20.609375 "/></g></g><g style="fill:#5592d1;fill-opacity:1;"><g transform="translate(119.6047, 77.21867)"><path style="stroke:none" d="M 42.421875 -35.25 C 43.703125 -35.25 45.078125 -35.035156 46.546875 -34.609375 C 48.015625 -34.179688 49.375 -33.421875 50.625 -32.328125 C 51.882812 -31.242188 52.914062 -29.753906 53.71875 -27.859375 C 54.53125 -25.960938 54.9375 -23.546875 54.9375 -20.609375 L 54.9375 0 L 45.125 0 L 45.125 -18.828125 C 45.125 -20.253906 44.96875 -21.460938 44.65625 -22.453125 C 44.351562 -23.453125 43.941406 -24.257812 43.421875 -24.875 C 42.898438 -25.488281 42.296875 -25.925781 41.609375 -26.1875 C 40.921875 -26.445312 40.222656 -26.578125 39.515625 -26.578125 C 38.847656 -26.578125 38.179688 -26.457031 37.515625 -26.21875 C 36.859375 -25.976562 36.269531 -25.570312 35.75 -25 C 35.226562 -24.4375 34.8125 -23.65625 34.5 -22.65625 C 34.1875 -21.664062 34.03125 -20.414062 34.03125 -18.90625 L 34.03125 0 L 24.234375 0 L 24.234375 -18.828125 C 24.234375 -21.722656 23.734375 -23.738281 22.734375 -24.875 C 21.742188 -26.007812 20.300781 -26.578125 18.40625 -26.578125 C 17.03125 -26.578125 15.796875 -25.9375 14.703125 -24.65625 C 13.617188 -23.375 13.078125 -21.382812 13.078125 -18.6875 L 13.078125 0 L 3.265625 0 L 3.265625 -35.25 L 11.65625 -35.25 L 13.078125 -31.984375 C 14.160156 -33.023438 15.425781 -33.828125 16.875 -34.390625 C 18.320312 -34.960938 19.875 -35.25 21.53125 -35.25 C 22.382812 -35.25 23.285156 -35.164062 24.234375 -35 C 25.179688 -34.832031 26.101562 -34.535156 27 -34.109375 C 27.90625 -33.679688 28.769531 -33.125 29.59375 -32.4375 C 30.425781 -31.75 31.175781 -30.882812 31.84375 -29.84375 C 32.40625 -30.75 33.085938 -31.539062 33.890625 -32.21875 C 34.703125 -32.90625 35.582031 -33.472656 36.53125 -33.921875 C 37.476562 -34.378906 38.457031 -34.710938 39.46875 -34.921875 C 40.488281 -35.140625 41.472656 -35.25 42.421875 -35.25 Z M 42.421875 -35.25 "/></g></g><g style="fill:#5592d1;fill-opacity:1;"><g transform="translate(177.588303, 77.21867)"><path style="stroke:none" d="M 23.59375 -36.234375 C 26.101562 -36.234375 28.421875 -35.75 30.546875 -34.78125 C 32.679688 -33.8125 34.519531 -32.484375 36.0625 -30.796875 C 37.601562 -29.117188 38.8125 -27.15625 39.6875 -24.90625 C 40.5625 -22.65625 41 -20.25 41 -17.6875 C 41 -15.132812 40.5625 -12.734375 39.6875 -10.484375 C 38.8125 -8.234375 37.601562 -6.265625 36.0625 -4.578125 C 34.519531 -2.898438 32.679688 -1.570312 30.546875 -0.59375 C 28.421875 0.375 26.101562 0.859375 23.59375 0.859375 C 21.550781 0.859375 19.554688 0.492188 17.609375 -0.234375 C 15.671875 -0.972656 14.160156 -1.914062 13.078125 -3.0625 L 13.078125 14.078125 L 3.265625 14.078125 L 3.265625 -35.25 L 11.65625 -35.25 L 13.078125 -32.828125 C 14.453125 -34.054688 15.988281 -34.929688 17.6875 -35.453125 C 19.394531 -35.972656 21.363281 -36.234375 23.59375 -36.234375 Z M 22.3125 -7.890625 C 23.59375 -7.890625 24.789062 -8.148438 25.90625 -8.671875 C 27.019531 -9.191406 27.988281 -9.890625 28.8125 -10.765625 C 29.644531 -11.640625 30.304688 -12.671875 30.796875 -13.859375 C 31.296875 -15.046875 31.546875 -16.320312 31.546875 -17.6875 C 31.546875 -19.019531 31.296875 -20.289062 30.796875 -21.5 C 30.304688 -22.707031 29.644531 -23.75 28.8125 -24.625 C 27.988281 -25.5 27.019531 -26.195312 25.90625 -26.71875 C 24.789062 -27.238281 23.59375 -27.5 22.3125 -27.5 C 21.03125 -27.5 19.832031 -27.320312 18.71875 -26.96875 C 17.613281 -26.613281 16.644531 -26.046875 15.8125 -25.265625 C 14.976562 -24.484375 14.320312 -23.460938 13.84375 -22.203125 C 13.375 -20.953125 13.140625 -19.445312 13.140625 -17.6875 C 13.140625 -16.03125 13.375 -14.597656 13.84375 -13.390625 C 14.320312 -12.179688 14.976562 -11.160156 15.8125 -10.328125 C 16.644531 -9.503906 17.613281 -8.890625 18.71875 -8.484375 C 19.832031 -8.085938 21.03125 -7.890625 22.3125 -7.890625 Z M 22.3125 -7.890625 "/></g></g><g style="fill:#5592d1;fill-opacity:1;"><g transform="translate(219.583786, 77.21867)"><path style="stroke:none" d="M 16.203125 -12.65625 C 16.203125 -10.988281 16.710938 -9.707031 17.734375 -8.8125 C 18.753906 -7.914062 20.09375 -7.46875 21.75 -7.46875 C 23.070312 -7.46875 24.394531 -7.726562 25.71875 -8.25 L 25.71875 0 C 24.539062 0.375 23.285156 0.691406 21.953125 0.953125 C 20.628906 1.210938 19.304688 1.34375 17.984375 1.34375 C 16.460938 1.34375 15.015625 1.15625 13.640625 0.78125 C 12.265625 0.40625 11.03125 -0.242188 9.9375 -1.171875 C 8.851562 -2.097656 7.988281 -3.328125 7.34375 -4.859375 C 6.707031 -6.398438 6.390625 -8.3125 6.390625 -10.59375 L 6.390625 -26.5 L 1.34375 -26.5 L 1.34375 -33.109375 L 6.390625 -35.25 L 6.390625 -43.140625 L 16.203125 -43.140625 L 16.203125 -35.25 L 25.71875 -35.25 L 25.71875 -26.5 L 16.203125 -26.5 Z M 16.203125 -12.65625 "/></g></g><g style="fill:#5592d1;fill-opacity:1;"><g transform="translate(246.799131, 77.21867)"><path style="stroke:none" d="M 25.578125 -18.46875 C 28.179688 -16.625 29.484375 -14 29.484375 -10.59375 C 29.484375 -9.03125 29.113281 -7.5625 28.375 -6.1875 C 27.644531 -4.8125 26.640625 -3.601562 25.359375 -2.5625 C 24.085938 -1.519531 22.597656 -0.703125 20.890625 -0.109375 C 19.179688 0.484375 17.359375 0.78125 15.421875 0.78125 C 13.953125 0.78125 12.519531 0.585938 11.125 0.203125 C 9.726562 -0.171875 8.4375 -0.6875 7.25 -1.34375 C 6.0625 -2.007812 5.03125 -2.800781 4.15625 -3.71875 C 3.28125 -4.644531 2.628906 -5.679688 2.203125 -6.828125 C 3.296875 -7.347656 4.503906 -7.925781 5.828125 -8.5625 C 7.148438 -9.195312 8.3125 -9.773438 9.3125 -10.296875 C 9.738281 -9.585938 10.398438 -8.9375 11.296875 -8.34375 C 12.203125 -7.757812 13.4375 -7.46875 15 -7.46875 C 16.601562 -7.46875 17.785156 -7.84375 18.546875 -8.59375 C 19.304688 -9.351562 19.6875 -10.066406 19.6875 -10.734375 C 19.6875 -11.203125 19.425781 -11.640625 18.90625 -12.046875 C 18.382812 -12.453125 17.789062 -12.769531 17.125 -13 C 16.175781 -13.382812 15.394531 -13.585938 14.78125 -13.609375 C 14.164062 -13.628906 13.457031 -13.757812 12.65625 -14 C 10.09375 -14.613281 8.132812 -15.429688 6.78125 -16.453125 C 5.4375 -17.472656 4.453125 -18.503906 3.828125 -19.546875 C 3.210938 -20.585938 2.867188 -21.582031 2.796875 -22.53125 C 2.734375 -23.476562 2.703125 -24.234375 2.703125 -24.796875 C 2.703125 -26.316406 3.03125 -27.765625 3.6875 -29.140625 C 4.351562 -30.515625 5.265625 -31.707031 6.421875 -32.71875 C 7.585938 -33.738281 8.941406 -34.554688 10.484375 -35.171875 C 12.023438 -35.785156 13.671875 -36.09375 15.421875 -36.09375 C 16.890625 -36.09375 18.285156 -35.878906 19.609375 -35.453125 C 20.941406 -35.035156 22.148438 -34.445312 23.234375 -33.6875 C 24.328125 -32.925781 25.265625 -32.023438 26.046875 -30.984375 C 26.828125 -29.941406 27.40625 -28.78125 27.78125 -27.5 L 20.1875 -24.9375 C 19.894531 -25.789062 19.3125 -26.476562 18.4375 -27 C 17.5625 -27.519531 16.628906 -27.78125 15.640625 -27.78125 C 14.640625 -27.78125 13.832031 -27.445312 13.21875 -26.78125 C 12.601562 -26.125 12.296875 -25.460938 12.296875 -24.796875 C 12.296875 -23.992188 12.59375 -23.367188 13.1875 -22.921875 C 13.78125 -22.472656 14.429688 -22.148438 15.140625 -21.953125 C 15.660156 -21.859375 16.164062 -21.773438 16.65625 -21.703125 C 17.15625 -21.640625 17.644531 -21.554688 18.125 -21.453125 C 19.78125 -21.078125 21.210938 -20.648438 22.421875 -20.171875 C 23.628906 -19.703125 24.679688 -19.132812 25.578125 -18.46875 Z M 25.578125 -18.46875 "/></g></g><g style="fill:#5592d1;fill-opacity:1;"><g transform="translate(278.277971, 77.21867)"><path style="stroke:none" d="M 13.859375 0 L 4.046875 0 L 4.046875 -35.25 L 13.859375 -35.25 Z M 8.953125 -40.078125 C 7.441406 -40.078125 6.160156 -40.597656 5.109375 -41.640625 C 4.066406 -42.679688 3.546875 -43.960938 3.546875 -45.484375 C 3.546875 -46.992188 4.066406 -48.28125 5.109375 -49.34375 C 6.160156 -50.414062 7.441406 -50.953125 8.953125 -50.953125 C 10.472656 -50.953125 11.753906 -50.414062 12.796875 -49.34375 C 13.835938 -48.28125 14.359375 -46.992188 14.359375 -45.484375 C 14.359375 -43.960938 13.835938 -42.679688 12.796875 -41.640625 C 11.753906 -40.597656 10.472656 -40.078125 8.953125 -40.078125 Z M 8.953125 -40.078125 "/></g></g><g style="fill:#5592d1;fill-opacity:1;"><g transform="translate(296.255734, 77.21867)"><path style="stroke:none" d="M 16.203125 -12.65625 C 16.203125 -10.988281 16.710938 -9.707031 17.734375 -8.8125 C 18.753906 -7.914062 20.09375 -7.46875 21.75 -7.46875 C 23.070312 -7.46875 24.394531 -7.726562 25.71875 -8.25 L 25.71875 0 C 24.539062 0.375 23.285156 0.691406 21.953125 0.953125 C 20.628906 1.210938 19.304688 1.34375 17.984375 1.34375 C 16.460938 1.34375 15.015625 1.15625 13.640625 0.78125 C 12.265625 0.40625 11.03125 -0.242188 9.9375 -1.171875 C 8.851562 -2.097656 7.988281 -3.328125 7.34375 -4.859375 C 6.707031 -6.398438 6.390625 -8.3125 6.390625 -10.59375 L 6.390625 -26.5 L 1.34375 -26.5 L 1.34375 -33.109375 L 6.390625 -35.25 L 6.390625 -43.140625 L 16.203125 -43.140625 L 16.203125 -35.25 L 25.71875 -35.25 L 25.71875 -26.5 L 16.203125 -26.5 Z M 16.203125 -12.65625 "/></g></g><g style="fill:#5592d1;fill-opacity:1;"><g transform="translate(323.47108, 77.21867)"><path style="stroke:none" d="M 20.609375 -36.234375 C 23.265625 -36.234375 25.679688 -35.703125 27.859375 -34.640625 C 30.035156 -33.578125 31.90625 -32.179688 33.46875 -30.453125 C 35.03125 -28.722656 36.238281 -26.734375 37.09375 -24.484375 C 37.945312 -22.234375 38.375 -19.921875 38.375 -17.546875 C 38.375 -16.128906 38.1875 -14.613281 37.8125 -13 L 12.65625 -13 C 13.601562 -11.394531 14.953125 -10.035156 16.703125 -8.921875 C 18.453125 -7.804688 20.347656 -7.25 22.390625 -7.25 C 24.421875 -7.25 26.207031 -7.414062 27.75 -7.75 C 29.289062 -8.082031 30.75 -8.507812 32.125 -9.03125 L 35.390625 -2.984375 C 33.640625 -1.753906 31.640625 -0.804688 29.390625 -0.140625 C 27.140625 0.523438 24.734375 0.859375 22.171875 0.859375 C 19.378906 0.859375 16.773438 0.375 14.359375 -0.59375 C 11.941406 -1.570312 9.832031 -2.890625 8.03125 -4.546875 C 6.226562 -6.203125 4.804688 -8.164062 3.765625 -10.4375 C 2.722656 -12.71875 2.203125 -15.132812 2.203125 -17.6875 C 2.203125 -20.195312 2.675781 -22.578125 3.625 -24.828125 C 4.570312 -27.085938 5.882812 -29.054688 7.5625 -30.734375 C 9.25 -32.410156 11.203125 -33.742188 13.421875 -34.734375 C 15.648438 -35.734375 18.046875 -36.234375 20.609375 -36.234375 Z M 28.640625 -20.609375 C 28.066406 -22.640625 27.046875 -24.296875 25.578125 -25.578125 C 24.109375 -26.859375 22.453125 -27.5 20.609375 -27.5 C 18.710938 -27.5 16.992188 -26.859375 15.453125 -25.578125 C 13.910156 -24.296875 12.859375 -22.640625 12.296875 -20.609375 Z M 28.640625 -20.609375 "/></g></g><g clip-rule="nonzero" clip-path="url(#64aa9f24c6)"><g clip-rule="nonzero" clip-path="url(#3489cad616)"><g clip-rule="nonzero" clip-path="url(#d874550a65)"><path style=" stroke:none;fill-rule:nonzero;fill:#5592d1;fill-opacity:1;" d="M 117.808594 48.621094 C 116.980469 48.078125 116.164062 47.53125 115.335938 46.988281 C 113.714844 45.929688 112.082031 44.855469 110.460938 43.796875 C 109.15625 42.945312 107.839844 42.039062 106.238281 41.949219 C 103.066406 41.8125 100.6875 44.738281 98.699219 46.800781 C 98.359375 47.164062 98.007812 47.507812 97.667969 47.867188 C 97.613281 47.816406 97.566406 47.78125 97.507812 47.730469 C 97.417969 47.65625 97.347656 47.589844 97.257812 47.519531 C 97.132812 47.398438 96.960938 47.179688 96.761719 47.179688 C 96.644531 47.167969 96.523438 47.226562 96.40625 47.28125 C 95.207031 46.253906 93.316406 46.332031 92.191406 47.484375 C 91.464844 48.238281 91.085938 49.273438 90.425781 50.089844 C 89.695312 51.003906 88.839844 51.863281 88.019531 52.703125 C 86.324219 54.410156 84.554688 56.105469 82.65625 57.574219 C 81.027344 58.84375 78.953125 59.980469 76.808594 59.445312 C 74.3125 58.816406 73.039062 56.273438 72.847656 53.878906 C 72.796875 53.265625 71.847656 53.316406 71.902344 53.929688 C 72.066406 55.984375 72.859375 58.042969 74.519531 59.324219 C 76.167969 60.589844 78.167969 60.816406 80.078125 60.164062 C 82.246094 59.433594 83.980469 57.785156 85.640625 56.296875 C 87.46875 54.652344 89.285156 52.929688 90.875 51.0625 C 91.277344 50.59375 91.644531 50.078125 91.964844 49.554688 C 92.285156 49.03125 92.5625 48.441406 93.019531 48.023438 C 93.824219 47.289062 95.046875 47.386719 95.835938 48.066406 C 95.742188 48.527344 95.976562 48.976562 96.367188 49.226562 C 94.488281 51.195312 92.65625 53.199219 90.835938 55.21875 C 85.222656 61.484375 79.824219 68.011719 74.695312 74.738281 C 74.535156 74.796875 74.386719 74.941406 74.339844 75.175781 C 74.078125 76.6875 74.648438 78.140625 75.507812 79.394531 C 76.511719 80.867188 77.820312 82.160156 79.105469 83.351562 C 80.566406 84.699219 82.109375 85.945312 83.691406 87.144531 C 84.457031 87.726562 85.234375 88.324219 86.019531 88.894531 C 86.683594 89.386719 87.394531 89.851562 88.21875 90.015625 C 89.53125 90.277344 90.863281 89.832031 91.804688 88.9375 C 91.878906 88.910156 91.953125 88.859375 92.019531 88.792969 C 97.296875 83.152344 102.25 77.234375 107.039062 71.203125 C 109.4375 68.175781 111.808594 65.144531 114.160156 62.078125 C 115.28125 60.617188 116.417969 59.144531 117.527344 57.664062 C 118.398438 56.527344 119.324219 55.375 119.839844 54.003906 C 120.292969 52.808594 120.378906 51.5 119.707031 50.363281 C 119.261719 49.59375 118.519531 49.082031 117.808594 48.621094 Z M 96.789062 47.71875 C 96.96875 47.890625 97.152344 48.035156 97.335938 48.203125 C 97.335938 48.203125 97.34375 48.21875 97.34375 48.21875 C 97.324219 48.253906 97.277344 48.285156 97.257812 48.320312 C 97.128906 48.164062 96.996094 48.027344 96.8125 47.925781 C 96.8125 47.859375 96.8125 47.792969 96.789062 47.71875 Z M 118.710938 51.007812 C 119.039062 51.570312 119.082031 52.234375 118.941406 52.863281 C 118.6875 54.082031 117.933594 55.164062 117.203125 56.140625 C 116.09375 57.621094 114.957031 59.09375 113.835938 60.554688 C 111.628906 63.433594 109.410156 66.296875 107.167969 69.15625 C 102.222656 75.421875 97.128906 81.566406 91.691406 87.429688 C 91.589844 87.476562 91.480469 87.546875 91.402344 87.664062 C 90.964844 88.3125 90.234375 88.757812 89.472656 88.886719 C 88.53125 89.046875 87.75 88.675781 86.996094 88.152344 C 85.261719 86.921875 83.566406 85.621094 81.921875 84.261719 C 80.292969 82.917969 78.730469 81.484375 77.359375 79.898438 C 76.371094 78.75 75.335938 77.300781 75.480469 75.710938 C 79.847656 69.914062 84.414062 64.324219 89.179688 58.890625 C 91.601562 56.132812 94.074219 53.414062 96.589844 50.730469 C 97.792969 49.460938 99.011719 48.175781 100.242188 46.910156 C 101.332031 45.800781 102.398438 44.621094 103.761719 43.824219 C 105.101562 43.019531 106.535156 42.933594 107.960938 43.632812 C 109.425781 44.351562 110.75 45.363281 112.097656 46.25 C 113.65625 47.285156 115.222656 48.292969 116.785156 49.324219 C 117.464844 49.808594 118.28125 50.265625 118.710938 51.007812 Z M 118.710938 51.007812 "/></g></g></g><g clip-rule="nonzero" clip-path="url(#431817404d)"><g clip-rule="nonzero" clip-path="url(#272432b84d)"><g clip-rule="nonzero" clip-path="url(#4afb994bda)"><path style=" stroke:none;fill-rule:nonzero;fill:#5592d1;fill-opacity:1;" d="M 96.15625 57.203125 L 78.972656 78.199219 L 88.488281 86.441406 L 105.34375 65.285156 Z M 102.898438 63.925781 L 90.34375 79.289062 C 89.921875 78.925781 89.453125 78.523438 88.953125 78.074219 L 101.621094 62.816406 Z M 86.9375 77.097656 C 87.304688 77.414062 87.703125 77.773438 88.132812 78.152344 L 86.621094 79.964844 C 86.257812 79.652344 85.859375 79.292969 85.4375 78.925781 Z M 84.996094 78.53125 C 84.515625 78.113281 84.027344 77.683594 83.574219 77.269531 L 85.070312 75.46875 C 85.457031 75.8125 85.933594 76.230469 86.496094 76.703125 Z M 86.867188 76.253906 C 86.378906 75.824219 85.886719 75.390625 85.441406 75.019531 L 86.675781 73.527344 C 87.0625 73.871094 87.539062 74.289062 88.085938 74.769531 Z M 88.527344 75.167969 C 88.894531 75.480469 89.292969 75.839844 89.734375 76.238281 L 88.519531 77.695312 C 88.132812 77.351562 87.722656 77 87.324219 76.640625 Z M 94.675781 66.691406 C 94.207031 66.289062 93.746094 65.863281 93.300781 65.464844 L 94.675781 63.8125 C 95.0625 64.15625 95.503906 64.554688 96.039062 65.023438 Z M 96.5 65.40625 C 96.882812 65.753906 97.308594 66.117188 97.761719 66.53125 L 96.386719 68.183594 C 96.011719 67.855469 95.578125 67.472656 95.136719 67.078125 Z M 94.757812 67.550781 C 95.136719 67.878906 95.558594 68.246094 96.011719 68.65625 L 94.726562 70.207031 C 94.347656 69.878906 93.925781 69.511719 93.484375 69.117188 Z M 93.03125 68.703125 C 92.5625 68.304688 92.097656 67.875 91.640625 67.492188 L 92.925781 65.941406 C 93.3125 66.285156 93.78125 66.6875 94.300781 67.164062 Z M 93.097656 69.574219 C 93.472656 69.902344 93.894531 70.269531 94.339844 70.664062 L 93.191406 72.054688 C 92.816406 71.726562 92.394531 71.359375 91.949219 70.964844 Z M 91.523438 70.558594 C 91.042969 70.140625 90.582031 69.714844 90.121094 69.328125 L 91.269531 67.9375 C 91.65625 68.28125 92.125 68.683594 92.660156 69.152344 Z M 91.578125 71.414062 C 91.957031 71.742188 92.351562 72.101562 92.8125 72.488281 L 91.648438 73.890625 C 91.28125 73.574219 90.875 73.199219 90.417969 72.8125 Z M 89.984375 72.433594 C 89.503906 72.015625 89.027344 71.601562 88.582031 71.203125 L 89.746094 69.804688 C 90.132812 70.148438 90.601562 70.546875 91.148438 71.03125 Z M 90.058594 73.277344 C 90.433594 73.605469 90.828125 73.96875 91.261719 74.347656 L 90.097656 75.75 C 89.734375 75.433594 89.328125 75.058594 88.894531 74.679688 Z M 88.460938 74.296875 C 87.984375 73.878906 87.503906 73.464844 87.050781 73.050781 L 88.214844 71.652344 C 88.597656 71.996094 89.066406 72.398438 89.613281 72.882812 Z M 101.175781 62.421875 L 98.128906 66.082031 C 97.753906 65.753906 97.3125 65.355469 96.867188 64.960938 L 99.878906 61.277344 Z M 99.4375 60.882812 L 96.425781 64.5625 C 95.957031 64.164062 95.492188 63.734375 95.0625 63.355469 L 98.082031 59.6875 Z M 96.226562 58.046875 L 97.636719 59.292969 L 94.617188 62.957031 C 94.027344 62.4375 93.527344 61.992188 93.21875 61.730469 Z M 92.832031 62.1875 C 93.066406 62.410156 93.492188 62.773438 94.230469 63.417969 L 92.859375 65.070312 C 92.265625 64.550781 91.777344 64.117188 91.457031 63.839844 Z M 91.097656 64.304688 C 91.359375 64.53125 91.765625 64.90625 92.5 65.535156 L 91.210938 67.082031 C 90.628906 66.578125 90.140625 66.148438 89.820312 65.871094 Z M 89.445312 66.34375 C 89.707031 66.570312 90.140625 66.949219 90.820312 67.566406 L 89.675781 68.957031 C 89.09375 68.453125 88.601562 68.023438 88.300781 67.734375 Z M 87.929688 68.183594 C 88.179688 68.394531 88.597656 68.785156 89.304688 69.40625 L 88.140625 70.808594 C 87.558594 70.304688 87.070312 69.871094 86.777344 69.597656 Z M 86.40625 70.046875 C 86.667969 70.273438 87.074219 70.648438 87.769531 71.253906 L 86.609375 72.65625 C 86.027344 72.152344 85.535156 71.71875 85.242188 71.445312 Z M 84.867188 71.921875 C 85.121094 72.132812 85.527344 72.507812 86.230469 73.128906 L 84.996094 74.625 C 84.40625 74.105469 83.925781 73.6875 83.628906 73.441406 Z M 83.257812 73.886719 C 83.484375 74.09375 83.90625 74.460938 84.613281 75.082031 L 83.128906 76.875 C 82.574219 76.375 82.09375 75.957031 81.773438 75.679688 Z M 79.789062 78.121094 L 81.398438 76.15625 C 81.664062 76.378906 82.058594 76.742188 82.753906 77.347656 L 81.148438 79.289062 Z M 81.59375 79.6875 L 83.195312 77.746094 C 83.59375 78.105469 84.0625 78.503906 84.617188 79.003906 L 83.027344 80.9375 Z M 83.488281 81.320312 L 85.078125 79.390625 C 85.441406 79.703125 85.828125 80.050781 86.261719 80.429688 L 84.675781 82.335938 Z M 85.109375 82.714844 L 88.582031 78.523438 C 89.015625 78.90625 89.484375 79.304688 89.972656 79.738281 L 86.535156 83.949219 Z M 88.40625 85.582031 L 86.980469 84.347656 L 88.75 82.183594 L 90.15625 83.386719 Z M 90.53125 82.914062 L 89.125 81.710938 L 90.078125 80.5625 L 91.472656 81.75 Z M 91.816406 81.296875 L 90.429688 80.125 L 91.492188 78.835938 L 92.851562 80.003906 Z M 93.226562 79.53125 L 91.867188 78.363281 L 100.132812 68.246094 L 101.371094 69.296875 Z M 101.742188 68.847656 L 100.503906 67.800781 L 101.8125 66.214844 L 103.023438 67.257812 Z M 102.203125 65.730469 L 103.355469 64.3125 L 104.527344 65.335938 L 103.402344 66.757812 Z M 102.203125 65.730469 "/></g></g></g><g clip-rule="nonzero" clip-path="url(#a16c7bb9ec)"><g clip-rule="nonzero" clip-path="url(#c132b11672)"><g clip-rule="nonzero" clip-path="url(#83c09baa3f)"><path style=" stroke:none;fill-rule:nonzero;fill:#5592d1;fill-opacity:1;" d="M 110.875 58.425781 L 116.234375 51.546875 L 107.179688 44.867188 L 101.457031 51.074219 Z M 104.34375 52.585938 L 105.921875 50.839844 C 106.589844 51.375 107.375 52.011719 108.183594 52.65625 L 106.625 54.367188 L 106.738281 54.46875 Z M 108.59375 52.203125 C 108.585938 52.1875 108.585938 52.1875 108.558594 52.183594 C 107.777344 51.542969 106.988281 50.933594 106.308594 50.382812 L 107.855469 48.65625 C 108.527344 49.191406 109.324219 49.820312 110.117188 50.472656 Z M 110.617188 50.851562 C 111.101562 51.242188 111.585938 51.636719 112.046875 51.996094 L 110.558594 53.773438 C 110.082031 53.394531 109.578125 52.972656 109.058594 52.5625 Z M 107.113281 54.730469 L 108.671875 53.019531 C 109.191406 53.433594 109.710938 53.84375 110.195312 54.234375 L 108.734375 55.992188 Z M 110.757812 57.585938 L 109.183594 56.363281 L 110.644531 54.605469 C 111.210938 55.054688 111.714844 55.476562 112.132812 55.800781 Z M 112.503906 55.351562 C 112.214844 55.121094 111.683594 54.691406 111.027344 54.171875 L 112.515625 52.394531 C 113.046875 52.824219 113.53125 53.214844 113.921875 53.535156 Z M 115.378906 51.667969 L 114.300781 53.058594 C 114 52.8125 113.5 52.433594 112.902344 51.9375 L 113.980469 50.640625 Z M 113.488281 50.273438 L 112.417969 51.546875 C 111.980469 51.191406 111.496094 50.800781 110.996094 50.421875 L 112.0625 49.242188 Z M 111.597656 48.878906 L 110.550781 50.050781 C 110.503906 50.015625 110.46875 49.992188 110.4375 49.945312 C 109.683594 49.355469 108.9375 48.738281 108.289062 48.234375 L 109.265625 47.15625 Z M 107.246094 45.671875 L 108.777344 46.792969 L 107.816406 47.859375 C 107.722656 47.785156 107.640625 47.730469 107.5625 47.648438 C 107.171875 47.328125 106.847656 47.074219 106.613281 46.894531 C 106.5 46.792969 106.417969 46.738281 106.335938 46.679688 C 106.335938 46.679688 106.328125 46.664062 106.328125 46.664062 Z M 105.90625 47.101562 C 106.035156 47.195312 106.601562 47.640625 107.410156 48.285156 L 105.859375 50.011719 C 105.804688 49.960938 105.757812 49.921875 105.699219 49.871094 C 105.308594 49.554688 104.984375 49.300781 104.753906 49.121094 C 104.640625 49.019531 104.558594 48.960938 104.472656 48.90625 C 104.4375 48.882812 104.382812 48.832031 104.320312 48.808594 Z M 104.195312 49.089844 L 104.027344 49.335938 C 104.097656 49.378906 104.640625 49.820312 105.449219 50.464844 L 103.867188 52.210938 L 102.328125 51.007812 L 104 49.199219 L 104.015625 49.320312 Z M 104.195312 49.089844 "/></g></g></g><g clip-rule="nonzero" clip-path="url(#c6c92e67e7)"><g clip-rule="nonzero" clip-path="url(#963a6a7dea)"><g clip-rule="nonzero" clip-path="url(#5a13934c69)"><path style=" stroke:none;fill-rule:nonzero;fill:#5592d1;fill-opacity:1;" d="M 105.824219 64.671875 L 110.859375 58.769531 L 107.988281 56.644531 L 106.59375 58.199219 L 104.792969 56.570312 L 102.699219 58.882812 L 104.550781 60.589844 L 103.183594 62.085938 Z M 108.066406 57.464844 L 109.992188 58.878906 L 108.769531 60.320312 L 107.015625 58.632812 Z M 108.371094 60.765625 L 107.152344 62.179688 L 105.351562 60.550781 L 106.609375 59.0625 Z M 104.824219 57.417969 L 106.195312 58.667969 L 104.933594 60.15625 L 103.515625 58.871094 Z M 104.980469 60.996094 L 106.792969 62.644531 L 105.792969 63.824219 L 104.003906 62.074219 Z M 104.980469 60.996094 "/></g></g></g><g clip-rule="nonzero" clip-path="url(#40c403f1fd)"><g clip-rule="nonzero" clip-path="url(#4c94eba58f)"><g clip-rule="nonzero" clip-path="url(#96bb61adb5)"><path style=" stroke:none;fill-rule:nonzero;fill:#5592d1;fill-opacity:1;" d="M 99.21875 59.21875 L 104.054688 53.625 L 101.0625 51.183594 L 96.355469 56.667969 Z M 102.472656 53.097656 L 103.210938 53.699219 L 102.378906 54.65625 L 101.640625 54.054688 Z M 101.125 52.011719 L 102 52.722656 L 101.167969 53.679688 L 100.292969 52.96875 Z M 101.992188 55.113281 L 100.734375 56.578125 L 99.988281 55.960938 L 101.246094 54.496094 Z M 99.921875 53.417969 L 100.796875 54.125 L 99.542969 55.589844 L 98.691406 54.882812 Z M 100.339844 57.019531 L 99.1875 58.371094 L 98.472656 57.730469 L 99.601562 56.417969 Z M 99.128906 56.042969 L 98.011719 57.34375 L 97.183594 56.605469 L 98.28125 55.335938 Z M 99.128906 56.042969 "/></g></g></g><g clip-rule="nonzero" clip-path="url(#871cd70e79)"><g clip-rule="nonzero" clip-path="url(#694909cefa)"><g clip-rule="nonzero" clip-path="url(#406929d1cc)"><path style=" stroke:none;fill-rule:nonzero;fill:#5592d1;fill-opacity:1;" d="M 101.195312 49.441406 C 101.464844 49.039062 101.761719 48.683594 102.097656 48.351562 C 102.328125 48.128906 102.265625 47.703125 102.035156 47.519531 C 101.769531 47.292969 101.425781 47.347656 101.203125 47.582031 C 100.789062 47.996094 100.445312 48.449219 100.121094 48.933594 C 99.945312 49.207031 100.136719 49.589844 100.402344 49.726562 C 100.707031 49.878906 101.019531 49.714844 101.195312 49.441406 Z M 101.195312 49.441406 "/></g></g></g><g clip-rule="nonzero" clip-path="url(#5803a0c299)"><g clip-rule="nonzero" clip-path="url(#b475fd234e)"><g clip-rule="nonzero" clip-path="url(#f17f38466e)"><path style=" stroke:none;fill-rule:nonzero;fill:#5592d1;fill-opacity:1;" d="M 104.164062 46.367188 C 104.324219 46.105469 104.546875 45.867188 104.78125 45.6875 C 105.023438 45.480469 105.132812 45.140625 104.945312 44.863281 C 104.78125 44.617188 104.363281 44.492188 104.121094 44.699219 C 103.707031 45.042969 103.367188 45.40625 103.089844 45.859375 C 102.914062 46.132812 103.089844 46.527344 103.371094 46.652344 C 103.691406 46.792969 104.003906 46.628906 104.164062 46.367188 Z M 104.164062 46.367188 "/></g></g></g><g clip-rule="nonzero" clip-path="url(#6b1dbff56f)"><g clip-rule="nonzero" clip-path="url(#293283c79d)"><g clip-rule="nonzero" clip-path="url(#6771e77ee3)"><path style=" stroke:none;fill-rule:nonzero;fill:#5592d1;fill-opacity:1;" d="M 117.609375 53.171875 C 111.253906 61.875 104.664062 70.421875 97.847656 78.765625 C 95.933594 81.113281 94.011719 83.449219 92.066406 85.75 C 91.871094 85.992188 92.226562 86.289062 92.429688 86.0625 C 99.367188 77.796875 106.082031 69.367188 112.5625 60.757812 C 114.382812 58.335938 116.179688 55.910156 117.964844 53.46875 C 118.15625 53.253906 117.789062 52.9375 117.609375 53.171875 Z M 117.609375 53.171875 "/></g></g></g><g clip-rule="nonzero" clip-path="url(#faae04fdc7)"><g clip-rule="nonzero" clip-path="url(#f6c540d729)"><g clip-rule="nonzero" clip-path="url(#5deb51044c)"><path style=" stroke:none;fill-rule:nonzero;fill:#5592d1;fill-opacity:1;" d="M 82.980469 68.226562 C 85.574219 65.222656 88.136719 62.175781 90.636719 59.101562 C 92.058594 57.347656 93.464844 55.582031 94.867188 53.800781 C 95.0625 53.558594 94.695312 53.246094 94.5 53.488281 C 91.914062 56.796875 89.253906 60.066406 86.5625 63.292969 C 83.875 66.492188 81.085938 69.601562 78.355469 72.761719 C 77.207031 74.085938 76.105469 75.847656 76.917969 77.628906 C 77.035156 77.90625 77.492188 77.757812 77.375 77.480469 C 76.558594 75.65625 77.921875 73.988281 79.066406 72.691406 C 80.367188 71.199219 81.679688 69.71875 82.980469 68.226562 Z M 82.980469 68.226562 "/></g></g></g><g clip-rule="nonzero" clip-path="url(#18ea062e3e)"><g clip-rule="nonzero" clip-path="url(#647f4b984e)"><g clip-rule="nonzero" clip-path="url(#9a75711263)"><path style=" stroke:none;fill-rule:nonzero;fill:#5592d1;fill-opacity:1;" d="M 94.527344 55.296875 C 91.609375 58.851562 88.707031 62.394531 85.800781 65.964844 C 85.605469 66.207031 85.972656 66.519531 86.167969 66.277344 C 89.082031 62.726562 91.984375 59.179688 94.890625 55.613281 C 95.089844 55.371094 94.722656 55.054688 94.527344 55.296875 Z M 94.527344 55.296875 "/></g></g></g></g></svg>